# xmcd
#
# Track frame offsets:
#	150
#	12532
#	25182
#	35157
#	49845
#	61732
#	72282
#	81770
#	92720
#	103707
#	115560
#	125100
#	133055
#	144792
#	156292
#	166702
#	179085
#	190992
#	202200
#	211200
#	221670
#	236947
#	248300
#	259797
#	271490
#	282847
#	293977
#
# Disc length: 4091 seconds
#
# Revision: 6
# Processed by: cddbd v1.5.2PL0 Copyright (c) Steve Scherf et al.
# Submitted via: EasyCDDAExtractor 8.2.3.1
#
DISCID=9b0ff91b
DTITLE=Patsy Cline - The Patsy Cline Collection cd1
DYEAR=1991
DGENRE=Country
TTITLE0=I'm Walking The Dog [Radio transcription]
TTITLE1=It Wasn't God Who Made Honky Tonk Angels [Radio transcription]
TTITLE2=Turn The Cards Slowly
TTITLE3=A Church  A Courtroom  And Then Goodbye
TTITLE4=Honky Tonk Merry Go Round
TTITLE5=I Love You, Honey
TTITLE6=Come On In (And Make Yourself At Home)
TTITLE7=I Don't Wanta
TTITLE8=Stop  Look And Listen [alt]
TTITLE9=I've Loved And Lost Again
TTITLE10=Yes  I Know Why [Radio transcription]
TTITLE11=For Rent [Radio transcription]
TTITLE12=Walkin' After Midnight
TTITLE13=The Heart You Break May Be Your Own
TTITLE14=Pick Me Up On Your Way Down
TTITLE15=A Poor Man's Roses (Or A Rich Man's Gold)
TTITLE16=Today  Tomorrow And Forever
TTITLE17=Don't Ever Leave Me Again
TTITLE18=Try Again
TTITLE19=Too Many Secrets
TTITLE20=Then You'll Know
TTITLE21=Three Cigarettes In An Ashtray
TTITLE22=That Wonderful Someone
TTITLE23=In Care Of The Blues
TTITLE24=Hungry For Love
TTITLE25=I Can't Forget
TTITLE26=If I Could See The World (Through The Eyes Of A Child)
EXTD=
EXTT0=Radio Transcription\nYEAR: 1954
EXTT1=Radio Transcription\nYEAR: 1954
EXTT2=YEAR: 1955
EXTT3=YEAR: 1955
EXTT4=YEAR: 1955
EXTT5=YEAR: 1956
EXTT6=YEAR: 1956
EXTT7=YEAR: 1956
EXTT8=Previously Unreleased\nYEAR: 1956
EXTT9=YEAR: 1956
EXTT10=Radio Transcription\nYEAR: 1956
EXTT11=Radio Transcription\nYEAR: 1956
EXTT12=YEAR: 1956
EXTT13=YEAR: 1956
EXTT14=YEAR: 1956
EXTT15=YEAR: 1956
EXTT16=YEAR: 1957
EXTT17=YEAR: 1957
EXTT18=YEAR: 1957
EXTT19=YEAR: 1957
EXTT20=YEAR: 1957
EXTT21=YEAR: 1957
EXTT22=YEAR: 1957
EXTT23=YEAR: 1957
EXTT24=YEAR: 1957
EXTT25=YEAR: 1957
EXTT26=YEAR: 1957
PLAYORDER=
